<mxfile host="app.diagrams.net" modified="2023-07-16T07:23:50.770Z" agent="Mozilla/5.0 (Windows NT 10.0; Win64; x64) AppleWebKit/537.36 (KHTML, like Gecko) Chrome/93.0.4577.63 Safari/537.36 Edg/93.0.961.47" etag="UOT439hXM4yY76DLQQw6" version="21.6.2" type="github">
  <diagram name="第 1 页" id="NV90HU0i6GYVLreOEyL-">
    <mxGraphModel dx="1050" dy="580" grid="1" gridSize="10" guides="1" tooltips="1" connect="1" arrows="1" fold="1" page="1" pageScale="1" pageWidth="827" pageHeight="1169" math="0" shadow="0">
      <root>
        <mxCell id="0" />
        <mxCell id="1" parent="0" />
        <mxCell id="NjXjIuCiAexYGs876YG5-1" value="算法库" style="shape=cylinder3;whiteSpace=wrap;html=1;boundedLbl=1;backgroundOutline=1;size=15;" vertex="1" parent="1">
          <mxGeometry x="430" y="110" width="210" height="180" as="geometry" />
        </mxCell>
        <mxCell id="NjXjIuCiAexYGs876YG5-2" value="拓扑元素名称数据结构" style="swimlane;whiteSpace=wrap;html=1;" vertex="1" parent="1">
          <mxGeometry x="110" y="360" width="270" height="200" as="geometry" />
        </mxCell>
        <mxCell id="NjXjIuCiAexYGs876YG5-3" value="拓扑实体点索引容器&lt;br&gt;拓扑实体边索引容器&lt;br&gt;拓扑实体面索引容器" style="text;html=1;strokeColor=none;fillColor=none;align=center;verticalAlign=middle;whiteSpace=wrap;rounded=0;" vertex="1" parent="NjXjIuCiAexYGs876YG5-2">
          <mxGeometry x="70" y="40" width="120" height="60" as="geometry" />
        </mxCell>
        <mxCell id="NjXjIuCiAexYGs876YG5-4" value="拓扑元素索引名-原始名双向map容器" style="text;html=1;strokeColor=none;fillColor=none;align=center;verticalAlign=middle;whiteSpace=wrap;rounded=0;" vertex="1" parent="NjXjIuCiAexYGs876YG5-2">
          <mxGeometry x="30" y="120" width="210" height="30" as="geometry" />
        </mxCell>
        <mxCell id="NjXjIuCiAexYGs876YG5-5" value="" style="shape=flexArrow;endArrow=classic;html=1;rounded=0;exitX=0;exitY=1;exitDx=0;exitDy=-15;exitPerimeter=0;entryX=0.5;entryY=0;entryDx=0;entryDy=0;" edge="1" parent="1" source="NjXjIuCiAexYGs876YG5-1" target="NjXjIuCiAexYGs876YG5-2">
          <mxGeometry width="50" height="50" relative="1" as="geometry">
            <mxPoint x="470" y="370" as="sourcePoint" />
            <mxPoint x="520" y="320" as="targetPoint" />
          </mxGeometry>
        </mxCell>
        <mxCell id="NjXjIuCiAexYGs876YG5-6" value="原始名生成算法调用" style="text;html=1;align=center;verticalAlign=middle;resizable=0;points=[];autosize=1;strokeColor=none;fillColor=none;" vertex="1" parent="1">
          <mxGeometry x="370" y="300" width="130" height="30" as="geometry" />
        </mxCell>
        <mxCell id="NjXjIuCiAexYGs876YG5-7" value="引用名生成算法调用" style="text;html=1;align=center;verticalAlign=middle;resizable=0;points=[];autosize=1;strokeColor=none;fillColor=none;" vertex="1" parent="1">
          <mxGeometry x="550" y="300" width="130" height="30" as="geometry" />
        </mxCell>
        <mxCell id="NjXjIuCiAexYGs876YG5-8" value="" style="shape=flexArrow;endArrow=classic;html=1;rounded=0;entryX=0.5;entryY=0;entryDx=0;entryDy=0;" edge="1" parent="1" target="NjXjIuCiAexYGs876YG5-16">
          <mxGeometry width="50" height="50" relative="1" as="geometry">
            <mxPoint x="640" y="276" as="sourcePoint" />
            <mxPoint x="770" y="350" as="targetPoint" />
          </mxGeometry>
        </mxCell>
        <mxCell id="NjXjIuCiAexYGs876YG5-9" value="" style="shape=flexArrow;endArrow=classic;startArrow=classic;html=1;rounded=0;entryX=0.5;entryY=1;entryDx=0;entryDy=0;entryPerimeter=0;" edge="1" parent="1" target="NjXjIuCiAexYGs876YG5-1">
          <mxGeometry width="100" height="100" relative="1" as="geometry">
            <mxPoint x="535" y="360" as="sourcePoint" />
            <mxPoint x="570" y="350" as="targetPoint" />
          </mxGeometry>
        </mxCell>
        <mxCell id="NjXjIuCiAexYGs876YG5-10" value="" style="swimlane;startSize=0;" vertex="1" parent="1">
          <mxGeometry x="410" y="360" width="260" height="200" as="geometry" />
        </mxCell>
        <mxCell id="NjXjIuCiAexYGs876YG5-11" value="拓扑元素引用名" style="text;html=1;align=center;verticalAlign=middle;resizable=0;points=[];autosize=1;strokeColor=none;fillColor=none;" vertex="1" parent="NjXjIuCiAexYGs876YG5-10">
          <mxGeometry x="10" y="55" width="110" height="30" as="geometry" />
        </mxCell>
        <mxCell id="NjXjIuCiAexYGs876YG5-12" value="&lt;br&gt;引用的拓扑元素和&lt;br&gt;特征信息" style="text;html=1;align=center;verticalAlign=middle;resizable=0;points=[];autosize=1;strokeColor=none;fillColor=none;" vertex="1" parent="NjXjIuCiAexYGs876YG5-10">
          <mxGeometry x="130" y="40" width="120" height="60" as="geometry" />
        </mxCell>
        <mxCell id="NjXjIuCiAexYGs876YG5-13" value="" style="shape=flexArrow;endArrow=classic;html=1;rounded=0;exitX=0.25;exitY=0;exitDx=0;exitDy=0;" edge="1" parent="NjXjIuCiAexYGs876YG5-10" source="NjXjIuCiAexYGs876YG5-10" target="NjXjIuCiAexYGs876YG5-11">
          <mxGeometry width="50" height="50" relative="1" as="geometry">
            <mxPoint x="110" y="160" as="sourcePoint" />
            <mxPoint x="63" y="60" as="targetPoint" />
          </mxGeometry>
        </mxCell>
        <mxCell id="NjXjIuCiAexYGs876YG5-14" value="" style="shape=flexArrow;endArrow=classic;html=1;rounded=0;entryX=0.75;entryY=0;entryDx=0;entryDy=0;" edge="1" parent="NjXjIuCiAexYGs876YG5-10" target="NjXjIuCiAexYGs876YG5-10">
          <mxGeometry width="50" height="50" relative="1" as="geometry">
            <mxPoint x="195" y="50" as="sourcePoint" />
            <mxPoint x="170" y="120" as="targetPoint" />
          </mxGeometry>
        </mxCell>
        <mxCell id="NjXjIuCiAexYGs876YG5-15" value="引用名辨识算法调用" style="text;html=1;align=center;verticalAlign=middle;resizable=0;points=[];autosize=1;strokeColor=none;fillColor=none;" vertex="1" parent="1">
          <mxGeometry x="730" y="290" width="130" height="30" as="geometry" />
        </mxCell>
        <mxCell id="NjXjIuCiAexYGs876YG5-16" value="" style="swimlane;startSize=0;" vertex="1" parent="1">
          <mxGeometry x="707" y="360" width="200" height="200" as="geometry" />
        </mxCell>
        <mxCell id="NjXjIuCiAexYGs876YG5-17" value="拓扑元素引用名和特征信息" style="text;html=1;strokeColor=none;fillColor=none;align=center;verticalAlign=middle;whiteSpace=wrap;rounded=0;" vertex="1" parent="NjXjIuCiAexYGs876YG5-16">
          <mxGeometry x="23" y="55" width="87" height="20" as="geometry" />
        </mxCell>
        <mxCell id="NjXjIuCiAexYGs876YG5-18" value="拓扑元素" style="text;html=1;strokeColor=none;fillColor=none;align=center;verticalAlign=middle;whiteSpace=wrap;rounded=0;" vertex="1" parent="NjXjIuCiAexYGs876YG5-16">
          <mxGeometry x="130" y="50" width="60" height="30" as="geometry" />
        </mxCell>
        <mxCell id="NjXjIuCiAexYGs876YG5-19" value="" style="shape=flexArrow;endArrow=classic;html=1;rounded=0;exitX=0.25;exitY=0;exitDx=0;exitDy=0;" edge="1" parent="NjXjIuCiAexYGs876YG5-16">
          <mxGeometry width="50" height="50" relative="1" as="geometry">
            <mxPoint x="159.5" as="sourcePoint" />
            <mxPoint x="159.5" y="55" as="targetPoint" />
          </mxGeometry>
        </mxCell>
        <mxCell id="NjXjIuCiAexYGs876YG5-20" value="" style="shape=flexArrow;endArrow=classic;html=1;rounded=0;entryX=0.75;entryY=0;entryDx=0;entryDy=0;" edge="1" parent="NjXjIuCiAexYGs876YG5-16">
          <mxGeometry width="50" height="50" relative="1" as="geometry">
            <mxPoint x="53" y="50" as="sourcePoint" />
            <mxPoint x="53" as="targetPoint" />
          </mxGeometry>
        </mxCell>
      </root>
    </mxGraphModel>
  </diagram>
</mxfile>
